<?xml version="1.0" encoding="utf-8"?>
<!-- Generator: Adobe Illustrator 15.1.0, SVG Export Plug-In . SVG Version: 6.00 Build 0)  -->
<!DOCTYPE svg PUBLIC "-//W3C//DTD SVG 1.1//EN" "http://www.w3.org/Graphics/SVG/1.1/DTD/svg11.dtd">
<svg version="1.1" id="Layer_1" xmlns="http://www.w3.org/2000/svg" xmlns:xlink="http://www.w3.org/1999/xlink" x="0px" y="0px"
	 width="175.491px" height="175.491px" viewBox="333.539 211.735 175.491 175.491"
	 enable-background="new 333.539 211.735 175.491 175.491" xml:space="preserve">
<title>logotipo-mobsale</title>
<g>
	<path fill="#F29127" d="M421.33,221.94c41.945,0,76.008,34.063,76.008,76.009c0,41.941-34.062,76.008-76.008,76.008
		c-41.941,0-76.008-34.064-76.008-76.008C345.323,256.003,379.389,221.94,421.33,221.94"/>
	<path fill="#DC8029" d="M394.306,252.344l-47.012,28.154c-1.41,5.629-1.972,11.538-1.972,17.451
		c0,36.316,25.336,66.438,59.119,74.32l63.901-31.25L394.306,252.344z"/>
	<polygon fill="#FFFFFF" points="383.89,259.101 461.586,259.101 468.345,340.738 377.135,340.738 	"/>
	<path fill="#355161" d="M448.638,279.088c0-2.249-1.688-3.941-3.94-3.941c-2.252,0-3.944,1.692-3.944,3.941
		c0,0.846,0.285,1.972,0.847,2.534c0.284,5.352-0.276,16.048-6.19,23.087c-3.38,3.938-8.447,5.909-14.64,5.909
		c-6.193,0-10.696-1.688-13.515-5.632c-5.066-6.475-3.937-17.17-3.095-22.518c1.124-0.562,1.97-1.972,1.97-3.38
		c0-2.249-1.688-3.941-3.94-3.941c-2.249,0-3.938,1.692-3.938,3.941c0,0.846,0.277,1.688,0.841,2.249
		c-1.125,6.198-2.251,18.582,3.941,26.467c3.94,5.067,9.85,7.6,17.451,7.6c7.885,0,14.078-2.531,18.581-7.6
		c6.755-7.885,7.601-19.428,7.601-25.621C448.077,281.622,448.638,280.496,448.638,279.088"/>
	<path fill="#355161" d="M383.89,259.101c0,0,10.42-3.941,10.42-7.039h59.96c0,0,1.122,5.352,7.315,7.039H383.89z"/>
</g>
</svg>
