<?xml version="1.0" encoding="utf-8"?>
<!-- Generator: Adobe Illustrator 15.1.0, SVG Export Plug-In . SVG Version: 6.00 Build 0)  -->
<!DOCTYPE svg PUBLIC "-//W3C//DTD SVG 1.1//EN" "http://www.w3.org/Graphics/SVG/1.1/DTD/svg11.dtd">
<svg version="1.1" id="Layer_1" xmlns="http://www.w3.org/2000/svg" xmlns:xlink="http://www.w3.org/1999/xlink" x="0px" y="0px"
	 width="20px" height="20px" viewBox="0 0 20 20" enable-background="new 0 0 20 20" xml:space="preserve">
<g>
	<path fill="#F29127" d="M10,1.093c4.917,0,8.907,3.993,8.907,8.907c0,4.914-3.99,8.907-8.907,8.907
		c-4.915,0-8.907-3.993-8.907-8.907C1.093,5.085,5.085,1.093,10,1.093"/>
	<path fill="#DC8029" d="M6.834,4.655l-5.51,3.3C1.158,8.614,1.093,9.307,1.093,10c0,4.255,2.969,7.786,6.928,8.71l7.489-3.663
		L6.834,4.655z"/>
	<polygon fill="#FFFFFF" points="5.613,5.447 14.719,5.447 15.51,15.015 4.821,15.015 	"/>
	<path fill="#355161" d="M13.201,7.79c0-0.264-0.199-0.462-0.462-0.462c-0.265,0-0.462,0.198-0.462,0.462
		c0,0.098,0.032,0.231,0.099,0.298c0.033,0.625-0.033,1.879-0.726,2.703c-0.396,0.462-0.991,0.692-1.716,0.692
		c-0.726,0-1.254-0.196-1.584-0.658c-0.595-0.761-0.462-2.014-0.362-2.64C8.119,8.119,8.218,7.955,8.218,7.79
		c0-0.264-0.197-0.462-0.462-0.462c-0.263,0-0.461,0.198-0.461,0.462c0,0.098,0.033,0.196,0.1,0.264
		c-0.133,0.727-0.265,2.177,0.462,3.1c0.462,0.594,1.153,0.891,2.045,0.891c0.924,0,1.649-0.297,2.177-0.891
		c0.791-0.923,0.892-2.275,0.892-3.002C13.134,8.088,13.201,7.955,13.201,7.79"/>
	<path fill="#355161" d="M5.613,5.447c0,0,1.221-0.462,1.221-0.826h7.026c0,0,0.133,0.628,0.858,0.826H5.613z"/>
</g>
</svg>
