<?xml version="1.0" encoding="UTF-8"?>
<!DOCTYPE svg PUBLIC "-//W3C//DTD SVG 1.1//EN" "http://www.w3.org/Graphics/SVG/1.1/DTD/svg11.dtd">
<!-- Creator: CorelDRAW 2020 (64 Bit) -->
<svg xmlns="http://www.w3.org/2000/svg" xml:space="preserve" width="482px" height="332px" version="1.1" style="shape-rendering:geometricPrecision; text-rendering:geometricPrecision; image-rendering:optimizeQuality; fill-rule:evenodd; clip-rule:evenodd"
viewBox="0 0 482 331.996"
 xmlns:xlink="http://www.w3.org/1999/xlink"
 xmlns:xodm="http://www.corel.com/coreldraw/odm/2003">
 <defs>
  <style type="text/css">
   <![CDATA[
    .fil2 {fill:#008591}
    .fil1 {fill:#008591;fill-rule:nonzero}
    .fil0 {fill:white;fill-rule:nonzero}
   ]]>
  </style>
 </defs>
 <g id="Camada_x0020_1">
  <metadata id="CorelCorpID_0Corel-Layer"/>
  <g id="_2775657179632">
   <path class="fil0" d="M105.544 278.165l-3.756 -34.535c-0.242,-2.663 -0.482,-5.305 -0.702,-7.947 -0.242,-2.643 -0.442,-5.306 -0.602,-7.948 -0.342,2.5 -0.845,5.143 -1.487,7.948 -0.642,2.784 -1.447,5.772 -2.39,8.963l-9.881 33.519 -18.415 0 -9.88 -33.519c-0.985,-3.191 -1.788,-6.179 -2.411,-8.963 -0.622,-2.805 -1.124,-5.448 -1.466,-7.948 -0.2,2.683 -0.401,5.346 -0.622,7.968 -0.221,2.622 -0.442,5.264 -0.682,7.927l-3.756 34.535 -30.365 0 14.7 -87.18 31.951 0 6.125 21.566c0.181,0.671 0.483,1.687 0.885,3.029 2.589,9.086 4.176,16.566 4.759,22.441l0.522 0c0.482,-3.679 1.184,-7.623 2.129,-11.79 0.944,-4.167 2.189,-8.842 3.755,-14.045l6.426 -21.201 31.87 0 13.657 87.18 -30.364 0z"/>
   <path class="fil0" d="M158.495 246.447l12.873 0 -2.631 -9.88c-1.304,-5.001 -2.188,-8.864 -2.649,-11.567 -0.483,-2.684 -0.764,-5.224 -0.884,-7.604l-0.523 0c-0.121,2.38 -0.421,4.92 -0.884,7.604 -0.481,2.703 -1.365,6.566 -2.65,11.567l-2.652 9.88zm-41.067 31.693l30.705 -87.191 34.481 0 30.125 87.191 -33.297 0 -2.772 -10.958 -23.356 0 -2.651 10.958 -33.235 0z"/>
   <polygon class="fil0" points="198.78,278.084 198.78,190.949 229.145,190.949 229.145,228.087 248.785,190.949 283.848,190.949 257.842,233.857 287.502,278.084 250.029,278.084 229.145,241.658 229.145,278.084 "/>
   <polygon class="fil0" points="282.163,278.111 282.163,219.442 264.933,219.442 264.933,190.92 330.339,190.92 330.339,219.442 313.109,219.442 313.109,278.111 "/>
   <path class="fil0" d="M317.464 238.091l0 -47.142 30.947 0 0 47.365c0,5.512 0.643,9.302 1.948,11.369 1.285,2.088 3.495,3.121 6.648,3.121 3.092,0 5.302,-1.074 6.627,-3.201 1.345,-2.149 2.009,-5.899 2.009,-11.289l0 -47.365 30.946 0 0 47.142c0,6.161 -0.402,11.247 -1.205,15.261 -0.803,3.992 -2.089,7.337 -3.855,10.033 -3.455,5.411 -8.153,9.585 -14.119,12.463 -5.965,2.899 -12.773,4.338 -20.403,4.338 -7.692,0 -14.52,-1.439 -20.483,-4.338 -5.966,-2.878 -10.665,-7.052 -14.12,-12.463 -1.727,-2.655 -2.971,-5.959 -3.754,-9.932 -0.783,-3.952 -1.186,-9.079 -1.186,-15.362z"/>
   <path class="fil0" d="M419.568 242.646l0 13.925 5.206 0c3.108,0 5.509,-0.61 7.184,-1.81 1.674,-1.22 2.501,-2.927 2.501,-5.164 0,-2.256 -0.827,-3.984 -2.501,-5.163 -1.675,-1.2 -4.076,-1.788 -7.184,-1.788l-5.206 0zm0 -30.961l0 12.197 4.076 0c2.523,0 4.44,-0.529 5.771,-1.586 1.312,-1.036 1.977,-2.562 1.977,-4.534 0,-1.992 -0.665,-3.496 -1.977,-4.533 -1.331,-1.036 -3.248,-1.544 -5.771,-1.544l-4.076 0zm-29.193 66.455l0 -87.191 41.421 0c8.877,0 15.797,2.094 20.761,6.281 4.963,4.188 7.445,10.023 7.445,17.483 0,4.757 -1.171,8.721 -3.512,11.872 -2.36,3.172 -5.669,5.225 -9.965,6.18 5.871,1.22 10.248,3.538 13.114,6.953 2.884,3.415 4.317,8.009 4.317,13.763 0,8.151 -2.723,14.291 -8.191,18.438 -5.448,4.147 -13.478,6.221 -24.07,6.221l-41.32 0z"/>
   <path class="fil1" d="M33.82 298.022c-0.704,-0.674 -1.418,-1.178 -2.15,-1.508 -0.73,-0.334 -1.503,-0.499 -2.311,-0.499 -1.257,0 -2.27,0.39 -3.034,1.163 -0.764,0.774 -1.148,1.805 -1.148,3.093 0,1.258 0.365,2.261 1.098,3.009 0.729,0.754 1.711,1.127 2.939,1.127 0.739,0 1.492,-0.159 2.256,-0.474 0.768,-0.319 1.601,-0.817 2.509,-1.511l-0.25 8.053c-0.838,0.34 -1.675,0.599 -2.514,0.768 -0.839,0.17 -1.677,0.255 -2.515,0.255 -1.042,0 -2.046,-0.115 -3.008,-0.349 -0.969,-0.234 -1.837,-0.568 -2.621,-0.998 -1.89,-1.088 -3.318,-2.47 -4.285,-4.137 -0.973,-1.666 -1.458,-3.578 -1.458,-5.743 0,-1.596 0.275,-3.078 0.829,-4.445 0.549,-1.363 1.352,-2.566 2.4,-3.608 1.062,-1.053 2.295,-1.852 3.692,-2.39 1.402,-0.544 2.914,-0.814 4.541,-0.814 0.868,0 1.721,0.09 2.564,0.27 0.844,0.18 1.667,0.449 2.466,0.813l0 7.925zm36.205 6.286c1.083,0 1.952,-0.369 2.61,-1.102 0.659,-0.739 0.989,-1.713 0.989,-2.935 0,-1.227 -0.33,-2.21 -0.989,-2.958 -0.658,-0.744 -1.527,-1.118 -2.61,-1.118 -1.082,0 -1.955,0.374 -2.619,1.127 -0.664,0.749 -0.993,1.732 -0.993,2.949 0,1.222 0.329,2.196 0.993,2.935 0.664,0.733 1.537,1.102 2.619,1.102zm11.447 -4.037c0,1.567 -0.28,3.029 -0.833,4.376 -0.554,1.353 -1.368,2.56 -2.44,3.623 -1.073,1.043 -2.31,1.842 -3.708,2.395 -1.397,0.554 -2.888,0.833 -4.466,0.833 -1.596,0 -3.093,-0.279 -4.485,-0.833 -1.397,-0.553 -2.635,-1.362 -3.717,-2.425 -1.059,-1.033 -1.867,-2.226 -2.41,-3.567 -0.544,-1.348 -0.819,-2.814 -0.819,-4.402 0,-1.587 0.275,-3.058 0.819,-4.416 0.543,-1.351 1.351,-2.549 2.41,-3.582 1.073,-1.048 2.305,-1.851 3.702,-2.4 1.392,-0.555 2.894,-0.828 4.5,-0.828 1.607,0 3.109,0.273 4.501,0.828 1.397,0.549 2.636,1.352 3.718,2.4 1.048,1.043 1.85,2.246 2.4,3.597 0.554,1.358 0.828,2.825 0.828,4.401zm25.358 10.658l0 -21.4 7.545 0 6.651 11.196c-0.09,-0.494 -0.15,-1.048 -0.184,-1.651 -0.035,-0.604 -0.05,-1.392 -0.05,-2.37l0 -7.175 7.41 0 0 21.4 -7.6 0 -6.581 -11.111c0.079,0.478 0.134,0.992 0.175,1.546 0.039,0.549 0.059,1.163 0.059,1.846l0 7.719 -7.425 0zm45.491 -1.826l2.456 -5.993c1.102,0.769 2.08,1.333 2.944,1.687 0.864,0.354 1.672,0.533 2.42,0.533 0.529,0 0.943,-0.099 1.242,-0.299 0.304,-0.199 0.454,-0.469 0.454,-0.812 0,-0.594 -0.753,-1.048 -2.265,-1.358 -0.489,-0.109 -0.869,-0.19 -1.142,-0.25 -1.597,-0.389 -2.82,-1.082 -3.668,-2.075 -0.848,-0.993 -1.273,-2.23 -1.273,-3.712 0,-2.301 0.824,-4.172 2.47,-5.614 1.647,-1.442 3.807,-2.165 6.477,-2.165 1.233,0 2.44,0.159 3.627,0.484 1.188,0.319 2.39,0.808 3.599,1.461l-2.341 5.599c-0.738,-0.544 -1.482,-0.963 -2.231,-1.252 -0.743,-0.285 -1.467,-0.429 -2.17,-0.429 -0.534,0 -0.948,0.089 -1.242,0.269 -0.295,0.18 -0.439,0.434 -0.439,0.754 0,0.603 1.067,1.137 3.203,1.591 0.339,0.08 0.604,0.14 0.788,0.18 1.472,0.329 2.63,1.008 3.478,2.031 0.849,1.022 1.273,2.26 1.273,3.711 0,2.366 -0.854,4.302 -2.565,5.804 -1.712,1.502 -3.937,2.25 -6.676,2.25 -1.403,0 -2.805,-0.199 -4.207,-0.598 -1.407,-0.4 -2.809,-0.999 -4.212,-1.797zm42.129 -7.968l0 -11.606 7.69 0 0 11.66c0,1.358 0.159,2.29 0.483,2.8 0.319,0.514 0.869,0.769 1.652,0.769 0.769,0 1.317,-0.266 1.647,-0.79 0.335,-0.528 0.499,-1.451 0.499,-2.779l0 -11.66 7.689 0 0 11.606c0,1.517 -0.1,2.769 -0.3,3.757 -0.199,0.983 -0.518,1.806 -0.957,2.47 -0.859,1.332 -2.027,2.36 -3.509,3.069 -1.481,0.713 -3.172,1.067 -5.069,1.067 -1.911,0 -3.607,-0.354 -5.089,-1.067 -1.482,-0.709 -2.65,-1.737 -3.508,-3.069 -0.43,-0.654 -0.738,-1.467 -0.934,-2.445 -0.194,-0.973 -0.294,-2.235 -0.294,-3.782zm45.776 9.794l0 -21.4 7.705 0 0 14.454 7.484 0 0 6.946 -15.189 0zm41.37 0l0 -14.4 -4.282 0 0 -7 16.252 0 0 7 -4.282 0 0 14.4 -7.688 0zm47.272 -6.621c1.083,0 1.952,-0.369 2.609,-1.102 0.659,-0.739 0.989,-1.713 0.989,-2.935 0,-1.227 -0.33,-2.21 -0.989,-2.958 -0.657,-0.744 -1.526,-1.118 -2.609,-1.118 -1.082,0 -1.955,0.374 -2.619,1.127 -0.664,0.749 -0.993,1.732 -0.993,2.949 0,1.222 0.329,2.196 0.993,2.935 0.664,0.733 1.537,1.102 2.619,1.102zm11.447 -4.037c0,1.567 -0.28,3.029 -0.834,4.376 -0.554,1.353 -1.367,2.56 -2.44,3.623 -1.072,1.043 -2.31,1.842 -3.707,2.395 -1.398,0.554 -2.889,0.833 -4.466,0.833 -1.597,0 -3.094,-0.279 -4.485,-0.833 -1.398,-0.553 -2.635,-1.362 -3.718,-2.425 -1.058,-1.033 -1.867,-2.226 -2.41,-3.567 -0.544,-1.348 -0.819,-2.814 -0.819,-4.402 0,-1.587 0.275,-3.058 0.819,-4.416 0.543,-1.351 1.352,-2.549 2.41,-3.582 1.073,-1.048 2.306,-1.851 3.703,-2.4 1.392,-0.555 2.894,-0.828 4.5,-0.828 1.607,0 3.109,0.273 4.501,0.828 1.397,0.549 2.635,1.352 3.717,2.4 1.048,1.043 1.851,2.246 2.4,3.597 0.554,1.358 0.829,2.825 0.829,4.401zm32.902 -5.234l0 4.181 1.198 0c0.733,0 1.292,-0.179 1.686,-0.534 0.394,-0.354 0.595,-0.863 0.595,-1.526 0,-0.684 -0.201,-1.207 -0.595,-1.572 -0.394,-0.364 -0.953,-0.549 -1.686,-0.549l-1.198 0zm-7.544 15.892l0 -21.4 9.68 0c2.805,0 4.949,0.618 6.431,1.856 1.482,1.237 2.221,3.023 2.221,5.348 0,1.523 -0.374,2.775 -1.117,3.758 -0.749,0.988 -1.752,1.561 -3.019,1.726l5.713 8.712 -8.622 0 -3.743 -7.061 0 7.061 -7.544 0zm43.71 0l0 -21.4 7.819 0 0 21.4 -7.819 0zm41.469 -7.779l3.199 0 -0.654 -2.425c-0.324,-1.227 -0.543,-2.175 -0.659,-2.838 -0.119,-0.659 -0.189,-1.283 -0.218,-1.868l-0.131 0c-0.03,0.585 -0.105,1.209 -0.219,1.868 -0.12,0.663 -0.34,1.611 -0.659,2.838l-0.659 2.425zm-10.204 7.779l7.629 -21.4 8.569 0 7.484 21.4 -8.274 0 -0.688 -2.689 -5.803 0 -0.659 2.689 -8.258 0z"/>
   <polygon class="fil2" points="32.699,175.618 191.093,17.933 235.562,62.4 122.052,175.618 "/>
   <polygon class="fil2" points="297.228,22.207 285.992,25.505 293.262,18.225 "/>
   <polygon class="fil2" points="297.228,22.207 285.992,25.505 136.068,175.618 225.372,175.618 292.28,108.76 359.321,175.618 450.024,175.618 "/>
   <polygon class="fil2" points="292.401,122.511 346.335,175.804 239,175.804 "/>
  </g>
 </g>
</svg>
