<?xml version="1.0" encoding="utf-8"?>
<!-- Generator: Adobe Illustrator 15.1.0, SVG Export Plug-In . SVG Version: 6.00 Build 0)  -->
<!DOCTYPE svg PUBLIC "-//W3C//DTD SVG 1.1//EN" "http://www.w3.org/Graphics/SVG/1.1/DTD/svg11.dtd">
<svg version="1.1" id="Layer_1" xmlns:xodm="http://www.corel.com/coreldraw/odm/2003"
	 xmlns="http://www.w3.org/2000/svg" xmlns:xlink="http://www.w3.org/1999/xlink" x="0px" y="0px" width="187.555px"
	 height="124.444px" viewBox="139.722 31.333 187.555 124.444" enable-background="new 139.722 31.333 187.555 124.444"
	 xml:space="preserve">
<g id="Camada_x0020_1">
	<path fill="#373435" d="M179.79,139.485l-1.511-13.88c-0.1-1.07-0.199-2.141-0.289-3.2c-0.091-1.06-0.171-2.13-0.24-3.19
		c-0.141,1-0.34,2.061-0.601,3.19c-0.25,1.12-0.58,2.32-0.96,3.61l-3.97,13.47h-7.4l-3.979-13.47c-0.39-1.29-0.72-2.49-0.97-3.61
		c-0.25-1.13-0.45-2.19-0.591-3.19c-0.079,1.08-0.159,2.15-0.25,3.2c-0.09,1.05-0.17,2.12-0.27,3.19l-1.51,13.88h-12.21l5.91-35.05
		h12.85l2.46,8.67c0.07,0.27,0.2,0.68,0.36,1.22c1.04,3.65,1.68,6.66,1.909,9.021h0.211c0.189-1.48,0.479-3.061,0.859-4.74
		c0.38-1.67,0.88-3.55,1.51-5.641l2.58-8.529H186.5l5.5,35.05H179.79L179.79,139.485z"/>
	<path fill="#373435" d="M201.08,126.735h5.17l-1.05-3.97c-0.53-2.011-0.881-3.57-1.07-4.65c-0.19-1.08-0.311-2.1-0.36-3.06h-0.21
		c-0.04,0.96-0.17,1.979-0.35,3.06c-0.19,1.08-0.55,2.64-1.07,4.65L201.08,126.735L201.08,126.735z M184.56,139.475l12.351-35.051
		h13.869l12.11,35.051H209.5l-1.11-4.4h-9.399l-1.061,4.4H184.56L184.56,139.475z"/>
	<polygon fill="#373435" points="217.27,139.455 217.27,104.425 229.48,104.425 229.48,119.355 237.38,104.425 251.48,104.425 
		241.02,121.675 252.95,139.455 237.88,139.455 229.48,124.815 229.48,139.455 	"/>
	<polygon fill="#373435" points="250.8,139.465 250.8,115.875 243.87,115.875 243.87,104.415 270.17,104.415 270.17,115.875 
		263.24,115.875 263.24,139.465 	"/>
	<path fill="#373435" d="M265,123.375v-18.95h12.439v19.04c0,2.221,0.261,3.74,0.78,4.57c0.52,0.84,1.41,1.26,2.67,1.26
		c1.25,0,2.14-0.43,2.67-1.29c0.54-0.859,0.811-2.37,0.811-4.54v-19.04h12.439v18.95c0,2.48-0.16,4.521-0.49,6.141
		c-0.319,1.6-0.84,2.949-1.55,4.029c-1.38,2.181-3.27,3.86-5.67,5.011c-2.399,1.17-5.14,1.75-8.21,1.75
		c-3.09,0-5.83-0.58-8.229-1.75c-2.4-1.15-4.29-2.83-5.681-5.011c-0.689-1.069-1.189-2.39-1.51-3.989
		C265.16,127.965,265,125.905,265,123.375L265,123.375z"/>
	<path fill="#373435" d="M306.05,125.205v5.601h2.09c1.25,0,2.22-0.24,2.89-0.73c0.671-0.49,1.011-1.17,1.011-2.07
		c0-0.909-0.34-1.6-1.011-2.08c-0.67-0.479-1.64-0.72-2.89-0.72H306.05z M306.05,112.755v4.91h1.64c1.011,0,1.78-0.21,2.32-0.64
		c0.53-0.42,0.79-1.03,0.79-1.82c0-0.8-0.26-1.41-0.79-1.83c-0.54-0.41-1.31-0.62-2.32-0.62H306.05z M294.31,139.475v-35.051h16.66
		c3.56,0,6.35,0.841,8.34,2.521c2,1.689,3,4.03,3,7.03c0,1.909-0.47,3.51-1.42,4.779c-0.939,1.271-2.27,2.101-4,2.48
		c2.36,0.49,4.12,1.42,5.271,2.79c1.159,1.38,1.739,3.229,1.739,5.54c0,3.28-1.1,5.75-3.3,7.41c-2.189,1.67-5.42,2.5-9.68,2.5
		H294.31z"/>
	<path fill="#008591" d="M150.95,147.475c-0.29-0.271-0.57-0.48-0.87-0.61c-0.29-0.13-0.601-0.2-0.931-0.2
		c-0.5,0-0.909,0.16-1.22,0.47c-0.3,0.311-0.46,0.721-0.46,1.24c0,0.51,0.15,0.91,0.44,1.21c0.3,0.311,0.689,0.46,1.189,0.46
		c0.29,0,0.601-0.069,0.9-0.189c0.31-0.13,0.649-0.33,1.01-0.61l-0.1,3.24c-0.341,0.13-0.671,0.24-1.011,0.3
		c-0.34,0.07-0.67,0.11-1.01,0.11c-0.42,0-0.82-0.05-1.21-0.141c-0.39-0.1-0.74-0.229-1.05-0.399c-0.76-0.44-1.34-1-1.73-1.67
		c-0.39-0.67-0.58-1.44-0.58-2.311c0-0.64,0.11-1.229,0.33-1.79c0.221-0.54,0.54-1.029,0.971-1.449
		c0.42-0.421,0.92-0.74,1.479-0.961c0.561-0.22,1.17-0.319,1.83-0.319c0.34,0,0.69,0.03,1.03,0.1c0.34,0.08,0.67,0.19,0.99,0.33
		V147.475L150.95,147.475z M165.51,150.005c0.43,0,0.78-0.149,1.04-0.449c0.27-0.29,0.4-0.69,0.4-1.181s-0.131-0.89-0.4-1.189
		c-0.26-0.301-0.61-0.45-1.04-0.45c-0.44,0-0.79,0.149-1.06,0.46c-0.271,0.3-0.4,0.69-0.4,1.18c0,0.49,0.13,0.891,0.4,1.181
		C164.72,149.855,165.07,150.005,165.51,150.005z M170.11,148.375c0,0.63-0.109,1.221-0.34,1.76c-0.22,0.551-0.55,1.03-0.979,1.461
		c-0.431,0.42-0.931,0.739-1.49,0.96c-0.56,0.22-1.16,0.34-1.79,0.34c-0.65,0-1.25-0.12-1.81-0.34
		c-0.561-0.221-1.061-0.551-1.49-0.971c-0.431-0.42-0.75-0.899-0.97-1.439c-0.221-0.54-0.33-1.13-0.33-1.771
		c0-0.64,0.109-1.229,0.33-1.77c0.22-0.55,0.539-1.03,0.97-1.44c0.43-0.43,0.92-0.75,1.49-0.97c0.56-0.22,1.159-0.33,1.81-0.33
		c0.64,0,1.25,0.11,1.81,0.33c0.561,0.22,1.051,0.54,1.49,0.97c0.42,0.42,0.74,0.9,0.96,1.44
		C170,147.155,170.11,147.745,170.11,148.375L170.11,148.375z M180.3,152.665v-8.609h3.04l2.67,4.51c-0.03-0.2-0.06-0.431-0.07-0.67
		c-0.02-0.24-0.02-0.561-0.02-0.95v-2.89h2.979v8.609h-3.06l-2.65-4.47c0.04,0.189,0.061,0.4,0.08,0.62
		c0.01,0.22,0.021,0.47,0.021,0.74v3.109H180.3L180.3,152.665z M198.59,151.925l0.99-2.409c0.449,0.31,0.84,0.54,1.189,0.68
		c0.34,0.14,0.67,0.22,0.971,0.22c0.21,0,0.38-0.04,0.5-0.12c0.119-0.08,0.18-0.189,0.18-0.33c0-0.239-0.3-0.42-0.91-0.55
		c-0.2-0.04-0.35-0.07-0.46-0.1c-0.64-0.15-1.13-0.431-1.47-0.83c-0.341-0.4-0.521-0.9-0.521-1.49c0-0.93,0.33-1.68,1-2.26
		c0.66-0.58,1.53-0.87,2.601-0.87c0.5,0,0.979,0.06,1.46,0.19c0.479,0.13,0.96,0.329,1.449,0.59l-0.939,2.25
		c-0.3-0.221-0.601-0.391-0.9-0.5c-0.3-0.12-0.59-0.17-0.87-0.17c-0.22,0-0.39,0.029-0.5,0.1c-0.119,0.08-0.18,0.18-0.18,0.31
		c0,0.24,0.43,0.45,1.29,0.641c0.13,0.03,0.24,0.05,0.31,0.07c0.601,0.13,1.061,0.399,1.4,0.819c0.34,0.41,0.521,0.9,0.521,1.49
		c0,0.95-0.351,1.729-1.04,2.33c-0.681,0.61-1.58,0.91-2.681,0.91c-0.56,0-1.13-0.08-1.689-0.24
		C199.72,152.495,199.16,152.245,198.59,151.925L198.59,151.925z M215.53,148.725v-4.67h3.101v4.689c0,0.55,0.06,0.92,0.189,1.13
		c0.131,0.2,0.351,0.311,0.66,0.311c0.311,0,0.53-0.11,0.67-0.32c0.13-0.21,0.2-0.58,0.2-1.12v-4.689h3.09v4.67
		c0,0.609-0.04,1.109-0.12,1.51c-0.079,0.399-0.21,0.729-0.39,0.99c-0.34,0.54-0.81,0.949-1.41,1.239
		c-0.59,0.28-1.27,0.431-2.04,0.431c-0.76,0-1.45-0.15-2.04-0.431c-0.6-0.29-1.069-0.699-1.41-1.239
		c-0.17-0.261-0.3-0.591-0.38-0.98S215.53,149.345,215.53,148.725L215.53,148.725z M233.94,152.665v-8.609h3.101v5.819h3.01v2.79
		H233.94z M250.57,152.665v-5.79h-1.72v-2.819h6.54v2.819h-1.729v5.79H250.57z M269.58,150.005c0.43,0,0.779-0.149,1.05-0.449
		c0.26-0.29,0.399-0.69,0.399-1.181s-0.14-0.89-0.399-1.189c-0.271-0.301-0.62-0.45-1.05-0.45c-0.431,0-0.79,0.149-1.051,0.46
		c-0.27,0.3-0.399,0.689-0.399,1.18s0.13,0.891,0.399,1.181C268.79,149.855,269.15,150.005,269.58,150.005z M274.18,148.375
		c0,0.63-0.11,1.221-0.33,1.76c-0.22,0.551-0.55,1.03-0.979,1.461c-0.431,0.42-0.931,0.739-1.49,0.96c-0.57,0.22-1.17,0.34-1.8,0.34
		c-0.641,0-1.24-0.12-1.8-0.34c-0.561-0.221-1.061-0.551-1.5-0.971c-0.421-0.42-0.75-0.899-0.971-1.439
		c-0.22-0.54-0.33-1.13-0.33-1.771c0-0.64,0.11-1.229,0.33-1.77c0.221-0.55,0.55-1.03,0.971-1.44c0.43-0.43,0.93-0.75,1.489-0.97
		c0.561-0.22,1.16-0.33,1.811-0.33c0.649,0,1.25,0.11,1.81,0.33c0.561,0.22,1.061,0.54,1.49,0.97c0.43,0.42,0.75,0.9,0.97,1.44
		C274.07,147.155,274.18,147.745,274.18,148.375z M287.41,146.275v1.68h0.479c0.3,0,0.521-0.07,0.68-0.22
		c0.16-0.141,0.24-0.34,0.24-0.61c0-0.27-0.08-0.479-0.24-0.63c-0.159-0.15-0.38-0.22-0.68-0.22H287.41L287.41,146.275z
		 M284.38,152.665v-8.609h3.89c1.13,0,1.99,0.25,2.59,0.75c0.591,0.5,0.891,1.22,0.891,2.149c0,0.61-0.15,1.12-0.45,1.51
		c-0.3,0.4-0.7,0.63-1.21,0.69l2.29,3.51h-3.46l-1.51-2.84v2.84H284.38L284.38,152.665z M301.95,152.665v-8.609h3.149v8.609H301.95z
		 M318.63,149.535h1.28l-0.261-0.97c-0.13-0.5-0.22-0.88-0.26-1.15c-0.05-0.26-0.08-0.51-0.09-0.75h-0.06
		c-0.011,0.24-0.04,0.49-0.08,0.75c-0.051,0.271-0.141,0.65-0.271,1.15L318.63,149.535z M314.52,152.665l3.07-8.609h3.45l3.01,8.609
		h-3.33l-0.28-1.08h-2.33l-0.27,1.08H314.52L314.52,152.665z"/>
	<polygon fill="#008591" points="150.5,98.255 214.18,34.855 232.06,52.735 186.42,98.255 	"/>
	<polygon fill="#008591" points="255.26,34.975 318.29,98.255 281.82,98.255 254.87,71.375 227.97,98.255 192.06,98.255 	"/>
	<polygon fill="#008591" points="254.92,76.905 276.6,98.335 233.45,98.335 	"/>
</g>
</svg>
