<?xml version="1.0" encoding="UTF-8"?>
<!DOCTYPE svg PUBLIC "-//W3C//DTD SVG 1.1//EN" "http://www.w3.org/Graphics/SVG/1.1/DTD/svg11.dtd">
<!-- Creator: CorelDRAW 2020 (64 Bit) -->
<svg xmlns="http://www.w3.org/2000/svg" xml:space="preserve" width="508px" height="331px" version="1.1" style="shape-rendering:geometricPrecision; text-rendering:geometricPrecision; image-rendering:optimizeQuality; fill-rule:evenodd; clip-rule:evenodd"
viewBox="0 0 508 330.79"
 xmlns:xlink="http://www.w3.org/1999/xlink"
 xmlns:xodm="http://www.corel.com/coreldraw/odm/2003">
 <defs>
  <style type="text/css">
   <![CDATA[
    .fil2 {fill:#008591}
    .fil0 {fill:#373435;fill-rule:nonzero}
    .fil1 {fill:#008591;fill-rule:nonzero}
   ]]>
  </style>
 </defs>
 <g id="Camada_x0020_1">
  <metadata id="CorelCorpID_0Corel-Layer"/>
  <path class="fil0" d="M179.79 139.38l-1.51 -13.88c-0.1,-1.07 -0.2,-2.14 -0.29,-3.2 -0.09,-1.06 -0.17,-2.13 -0.24,-3.19 -0.14,1 -0.34,2.06 -0.6,3.19 -0.25,1.12 -0.58,2.32 -0.96,3.61l-3.97 13.47 -7.4 0 -3.98 -13.47c-0.39,-1.29 -0.72,-2.49 -0.97,-3.61 -0.25,-1.13 -0.45,-2.19 -0.59,-3.19 -0.08,1.08 -0.16,2.15 -0.25,3.2 -0.09,1.05 -0.17,2.12 -0.27,3.19l-1.51 13.88 -12.21 0 5.91 -35.05 12.85 0 2.46 8.67c0.07,0.27 0.2,0.68 0.36,1.22 1.04,3.65 1.68,6.66 1.91,9.02l0.21 0c0.19,-1.48 0.48,-3.06 0.86,-4.74 0.38,-1.67 0.88,-3.55 1.51,-5.64l2.58 -8.53 12.81 0 5.5 35.05 -12.21 0z"/>
  <path class="fil0" d="M201.08 126.63l5.17 0 -1.05 -3.97c-0.53,-2.01 -0.88,-3.57 -1.07,-4.65 -0.19,-1.08 -0.31,-2.1 -0.36,-3.06l-0.21 0c-0.04,0.96 -0.17,1.98 -0.35,3.06 -0.19,1.08 -0.55,2.64 -1.07,4.65l-1.06 3.97zm-16.52 12.74l12.35 -35.05 13.87 0 12.11 35.05 -13.39 0 -1.11 -4.4 -9.4 0 -1.06 4.4 -13.37 0z"/>
  <polygon class="fil0" points="217.27,139.35 217.27,104.32 229.48,104.32 229.48,119.25 237.38,104.32 251.48,104.32 241.02,121.57 252.95,139.35 237.88,139.35 229.48,124.71 229.48,139.35 "/>
  <polygon class="fil0" points="250.8,139.36 250.8,115.77 243.87,115.77 243.87,104.31 270.17,104.31 270.17,115.77 263.24,115.77 263.24,139.36 "/>
  <path class="fil0" d="M265 123.27l0 -18.95 12.44 0 0 19.04c0,2.22 0.26,3.74 0.78,4.57 0.52,0.84 1.41,1.26 2.67,1.26 1.25,0 2.14,-0.43 2.67,-1.29 0.54,-0.86 0.81,-2.37 0.81,-4.54l0 -19.04 12.44 0 0 18.95c0,2.48 -0.16,4.52 -0.49,6.14 -0.32,1.6 -0.84,2.95 -1.55,4.03 -1.38,2.18 -3.27,3.86 -5.67,5.01 -2.4,1.17 -5.14,1.75 -8.21,1.75 -3.09,0 -5.83,-0.58 -8.23,-1.75 -2.4,-1.15 -4.29,-2.83 -5.68,-5.01 -0.69,-1.07 -1.19,-2.39 -1.51,-3.99 -0.31,-1.59 -0.47,-3.65 -0.47,-6.18z"/>
  <path class="fil0" d="M306.05 125.1l0 5.6 2.09 0c1.25,0 2.22,-0.24 2.89,-0.73 0.67,-0.49 1.01,-1.17 1.01,-2.07 0,-0.91 -0.34,-1.6 -1.01,-2.08 -0.67,-0.48 -1.64,-0.72 -2.89,-0.72l-2.09 0zm0 -12.45l0 4.91 1.64 0c1.01,0 1.78,-0.21 2.32,-0.64 0.53,-0.42 0.79,-1.03 0.79,-1.82 0,-0.8 -0.26,-1.41 -0.79,-1.83 -0.54,-0.41 -1.31,-0.62 -2.32,-0.62l-1.64 0zm-11.74 26.72l0 -35.05 16.66 0c3.56,0 6.35,0.84 8.34,2.52 2,1.69 3,4.03 3,7.03 0,1.91 -0.47,3.51 -1.42,4.78 -0.94,1.27 -2.27,2.1 -4,2.48 2.36,0.49 4.12,1.42 5.27,2.79 1.16,1.38 1.74,3.23 1.74,5.54 0,3.28 -1.1,5.75 -3.3,7.41 -2.19,1.67 -5.42,2.5 -9.68,2.5l-16.61 0z"/>
  <path class="fil1" d="M150.95 147.37c-0.29,-0.27 -0.57,-0.48 -0.87,-0.61 -0.29,-0.13 -0.6,-0.2 -0.93,-0.2 -0.5,0 -0.91,0.16 -1.22,0.47 -0.3,0.31 -0.46,0.72 -0.46,1.24 0,0.51 0.15,0.91 0.44,1.21 0.3,0.31 0.69,0.46 1.19,0.46 0.29,0 0.6,-0.07 0.9,-0.19 0.31,-0.13 0.65,-0.33 1.01,-0.61l-0.1 3.24c-0.34,0.13 -0.67,0.24 -1.01,0.3 -0.34,0.07 -0.67,0.11 -1.01,0.11 -0.42,0 -0.82,-0.05 -1.21,-0.14 -0.39,-0.1 -0.74,-0.23 -1.05,-0.4 -0.76,-0.44 -1.34,-1 -1.73,-1.67 -0.39,-0.67 -0.58,-1.44 -0.58,-2.31 0,-0.64 0.11,-1.23 0.33,-1.79 0.22,-0.54 0.54,-1.03 0.97,-1.45 0.42,-0.42 0.92,-0.74 1.48,-0.96 0.56,-0.22 1.17,-0.32 1.83,-0.32 0.34,0 0.69,0.03 1.03,0.1 0.34,0.08 0.67,0.19 0.99,0.33l0 3.19zm14.56 2.53c0.43,0 0.78,-0.15 1.04,-0.45 0.27,-0.29 0.4,-0.69 0.4,-1.18 0,-0.49 -0.13,-0.89 -0.4,-1.19 -0.26,-0.3 -0.61,-0.45 -1.04,-0.45 -0.44,0 -0.79,0.15 -1.06,0.46 -0.27,0.3 -0.4,0.69 -0.4,1.18 0,0.49 0.13,0.89 0.4,1.18 0.27,0.3 0.62,0.45 1.06,0.45zm4.6 -1.63c0,0.63 -0.11,1.22 -0.34,1.76 -0.22,0.55 -0.55,1.03 -0.98,1.46 -0.43,0.42 -0.93,0.74 -1.49,0.96 -0.56,0.22 -1.16,0.34 -1.79,0.34 -0.65,0 -1.25,-0.12 -1.81,-0.34 -0.56,-0.22 -1.06,-0.55 -1.49,-0.97 -0.43,-0.42 -0.75,-0.9 -0.97,-1.44 -0.22,-0.54 -0.33,-1.13 -0.33,-1.77 0,-0.64 0.11,-1.23 0.33,-1.77 0.22,-0.55 0.54,-1.03 0.97,-1.44 0.43,-0.43 0.92,-0.75 1.49,-0.97 0.56,-0.22 1.16,-0.33 1.81,-0.33 0.64,0 1.25,0.11 1.81,0.33 0.56,0.22 1.05,0.54 1.49,0.97 0.42,0.42 0.74,0.9 0.96,1.44 0.23,0.55 0.34,1.14 0.34,1.77zm10.19 4.29l0 -8.61 3.04 0 2.67 4.51c-0.03,-0.2 -0.06,-0.43 -0.07,-0.67 -0.02,-0.24 -0.02,-0.56 -0.02,-0.95l0 -2.89 2.98 0 0 8.61 -3.06 0 -2.65 -4.47c0.04,0.19 0.06,0.4 0.08,0.62 0.01,0.22 0.02,0.47 0.02,0.74l0 3.11 -2.99 0zm18.29 -0.74l0.99 -2.41c0.45,0.31 0.84,0.54 1.19,0.68 0.34,0.14 0.67,0.22 0.97,0.22 0.21,0 0.38,-0.04 0.5,-0.12 0.12,-0.08 0.18,-0.19 0.18,-0.33 0,-0.24 -0.3,-0.42 -0.91,-0.55 -0.2,-0.04 -0.35,-0.07 -0.46,-0.1 -0.64,-0.15 -1.13,-0.43 -1.47,-0.83 -0.34,-0.4 -0.52,-0.9 -0.52,-1.49 0,-0.93 0.33,-1.68 1,-2.26 0.66,-0.58 1.53,-0.87 2.6,-0.87 0.5,0 0.98,0.06 1.46,0.19 0.48,0.13 0.96,0.33 1.45,0.59l-0.94 2.25c-0.3,-0.22 -0.6,-0.39 -0.9,-0.5 -0.3,-0.12 -0.59,-0.17 -0.87,-0.17 -0.22,0 -0.39,0.03 -0.5,0.1 -0.12,0.08 -0.18,0.18 -0.18,0.31 0,0.24 0.43,0.45 1.29,0.64 0.13,0.03 0.24,0.05 0.31,0.07 0.6,0.13 1.06,0.4 1.4,0.82 0.34,0.41 0.52,0.9 0.52,1.49 0,0.95 -0.35,1.73 -1.04,2.33 -0.68,0.61 -1.58,0.91 -2.68,0.91 -0.56,0 -1.13,-0.08 -1.69,-0.24 -0.57,-0.16 -1.13,-0.41 -1.7,-0.73zm16.94 -3.2l0 -4.67 3.1 0 0 4.69c0,0.55 0.06,0.92 0.19,1.13 0.13,0.2 0.35,0.31 0.66,0.31 0.31,0 0.53,-0.11 0.67,-0.32 0.13,-0.21 0.2,-0.58 0.2,-1.12l0 -4.69 3.09 0 0 4.67c0,0.61 -0.04,1.11 -0.12,1.51 -0.08,0.4 -0.21,0.73 -0.39,0.99 -0.34,0.54 -0.81,0.95 -1.41,1.24 -0.59,0.28 -1.27,0.43 -2.04,0.43 -0.76,0 -1.45,-0.15 -2.04,-0.43 -0.6,-0.29 -1.07,-0.7 -1.41,-1.24 -0.17,-0.26 -0.3,-0.59 -0.38,-0.98 -0.08,-0.39 -0.12,-0.9 -0.12,-1.52zm18.41 3.94l0 -8.61 3.1 0 0 5.82 3.01 0 0 2.79 -6.11 0zm16.63 0l0 -5.79 -1.72 0 0 -2.82 6.54 0 0 2.82 -1.73 0 0 5.79 -3.09 0zm19.01 -2.66c0.43,0 0.78,-0.15 1.05,-0.45 0.26,-0.29 0.4,-0.69 0.4,-1.18 0,-0.49 -0.14,-0.89 -0.4,-1.19 -0.27,-0.3 -0.62,-0.45 -1.05,-0.45 -0.43,0 -0.79,0.15 -1.05,0.46 -0.27,0.3 -0.4,0.69 -0.4,1.18 0,0.49 0.13,0.89 0.4,1.18 0.26,0.3 0.62,0.45 1.05,0.45zm4.6 -1.63c0,0.63 -0.11,1.22 -0.33,1.76 -0.22,0.55 -0.55,1.03 -0.98,1.46 -0.43,0.42 -0.93,0.74 -1.49,0.96 -0.57,0.22 -1.17,0.34 -1.8,0.34 -0.64,0 -1.24,-0.12 -1.8,-0.34 -0.56,-0.22 -1.06,-0.55 -1.5,-0.97 -0.42,-0.42 -0.75,-0.9 -0.97,-1.44 -0.22,-0.54 -0.33,-1.13 -0.33,-1.77 0,-0.64 0.11,-1.23 0.33,-1.77 0.22,-0.55 0.55,-1.03 0.97,-1.44 0.43,-0.43 0.93,-0.75 1.49,-0.97 0.56,-0.22 1.16,-0.33 1.81,-0.33 0.65,0 1.25,0.11 1.81,0.33 0.56,0.22 1.06,0.54 1.49,0.97 0.43,0.42 0.75,0.9 0.97,1.44 0.22,0.55 0.33,1.14 0.33,1.77zm13.23 -2.1l0 1.68 0.48 0c0.3,0 0.52,-0.07 0.68,-0.22 0.16,-0.14 0.24,-0.34 0.24,-0.61 0,-0.27 -0.08,-0.48 -0.24,-0.63 -0.16,-0.15 -0.38,-0.22 -0.68,-0.22l-0.48 0zm-3.03 6.39l0 -8.61 3.89 0c1.13,0 1.99,0.25 2.59,0.75 0.59,0.5 0.89,1.22 0.89,2.15 0,0.61 -0.15,1.12 -0.45,1.51 -0.3,0.4 -0.7,0.63 -1.21,0.69l2.29 3.51 -3.46 0 -1.51 -2.84 0 2.84 -3.03 0zm17.57 0l0 -8.61 3.15 0 0 8.61 -3.15 0zm16.68 -3.13l1.28 0 -0.26 -0.97c-0.13,-0.5 -0.22,-0.88 -0.26,-1.15 -0.05,-0.26 -0.08,-0.51 -0.09,-0.75l-0.06 0c-0.01,0.24 -0.04,0.49 -0.08,0.75 -0.05,0.27 -0.14,0.65 -0.27,1.15l-0.26 0.97zm-4.11 3.13l3.07 -8.61 3.45 0 3.01 8.61 -3.33 0 -0.28 -1.08 -2.33 0 -0.27 1.08 -3.32 0z"/>
  <polygon class="fil2" points="150.5,98.15 214.18,34.75 232.06,52.63 186.42,98.15 "/>
  <polygon class="fil2" points="255.26,34.87 318.29,98.15 281.82,98.15 254.87,71.27 227.97,98.15 192.06,98.15 "/>
  <polygon class="fil2" points="254.92,76.8 276.6,98.23 233.45,98.23 "/>
 </g>
</svg>
